<svg xmlns="http://www.w3.org/2000/svg" viewBox="0 0 1200 650"><defs><linearGradient id="g" x1="0" x2="1"><stop stop-color="#071a26"/><stop offset="1" stop-color="#122b46"/></linearGradient><radialGradient id="r"><stop stop-color="#16c8c4" stop-opacity=".45"/><stop offset="1" stop-color="#16c8c4" stop-opacity="0"/></radialGradient></defs><rect width="1200" height="650" fill="url(#g)"/><circle cx="1000" cy="120" r="260" fill="url(#r)"/><circle cx="190" cy="570" r="220" fill="#7c3aed" opacity=".12"/><g fill="none" stroke="#20d8d3" stroke-width="8" opacity=".75"><path d="M80 110h210M80 140h130"/><path d="M910 500h200M970 530h140"/></g><text x="80" y="260" fill="#20d8d3" font-family="Arial,sans-serif" font-size="28" font-weight="700" letter-spacing="4">SIGNSPEAK AI</text><text x="80" y="335" fill="white" font-family="Arial,sans-serif" font-size="58" font-weight="800">ADVANCED SIGNING</text><text x="80" y="400" fill="#d9f7f6" font-family="Arial,sans-serif" font-size="32" font-weight="600">STORY  •  EXPRESSION</text><text x="80" y="465" fill="#94a3b8" font-family="Arial,sans-serif" font-size="24">Refine motion and fluency</text><g transform="translate(900 250)"><circle cx="0" cy="0" r="105" fill="#0e2530" stroke="#20d8d3" stroke-width="3"/><path d="M-45 45 C-75 10 -55 -35 -25 -18 L-10 -65 C-4 -80 15 -75 12 -55 L10 -25 L30 -82 C35 -96 54 -90 50 -70 L38 -25 L58 -65 C64 -78 82 -69 76 -50 L50 20 C35 55 -8 72 -45 45Z" fill="#20d8d3" opacity=".85"/></g></svg>